<svg width="24" height="24" viewBox="0 0 24 24" fill="none" xmlns="http://www.w3.org/2000/svg">
<path fill-rule="evenodd" clip-rule="evenodd" d="M9.65247 12.5591V19.8111C9.65247 19.9156 9.74375 20 9.85625 20H12.7546C12.8666 20 12.9579 19.9156 12.9579 19.8111V12.4409H15.0589C15.1645 12.4409 15.2523 12.3657 15.2617 12.268L15.4635 10.0472C15.4734 9.93719 15.3801 9.84275 15.2612 9.84275H12.9579V8.26701C12.9579 7.89749 13.2796 7.59811 13.6773 7.59811H15.2967C15.4092 7.59811 15.5 7.51375 15.5 7.40968V5.18889C15.5 5.08482 15.4092 5 15.2967 5H12.5602C10.9541 5 9.65247 6.20943 9.65247 7.70172V9.84275H8.20329C8.09079 9.84275 8 9.9271 8 10.0316V12.252C8 12.3565 8.09079 12.4409 8.20329 12.4409H9.65247V12.5591Z" fill="#41CB83"/>
</svg>
