<svg width="24" height="24" viewBox="0 0 24 24" fill="none" xmlns="http://www.w3.org/2000/svg">
<path fill-rule="evenodd" clip-rule="evenodd" d="M18.9247 15.2652C18.9247 17.2704 17.2961 18.8961 15.2867 18.8961H8.29656C6.28716 18.8961 4.65852 17.2704 4.65852 15.2652V8.28686C4.65852 6.28166 6.28716 4.656 8.29656 4.656H15.2867C17.2961 4.656 18.9247 6.28166 18.9247 8.28686V15.2652ZM20.5837 8.28686C20.5837 5.36726 18.2121 3 15.2867 3H8.29656C5.37109 3 3 5.36726 3 8.28686V15.2652C3 18.1848 5.37109 20.5521 8.29656 20.5521H15.2867C18.2121 20.5521 20.5837 18.1848 20.5837 15.2652V8.28686ZM11.8218 14.6661C10.2874 14.6661 9.03952 13.4205 9.03952 11.8894C9.03952 10.3584 10.2874 9.1128 11.8218 9.1128C13.3551 9.1128 14.603 10.3584 14.603 11.8894C14.603 13.4205 13.3551 14.6661 11.8218 14.6661ZM11.8218 7.55503C9.42697 7.55503 7.47889 9.49903 7.47889 11.8894C7.47889 14.2793 9.42697 16.2238 11.8218 16.2238C14.216 16.2238 16.1636 14.2793 16.1636 11.8894C16.1636 9.49903 14.216 7.55503 11.8218 7.55503ZM16.4176 6.23177C15.8462 6.23177 15.3835 6.6936 15.3835 7.26343C15.3835 7.83326 15.8462 8.29509 16.4176 8.29509C16.9885 8.29509 17.4506 7.83326 17.4506 7.26343C17.4506 6.6936 16.9885 6.23177 16.4176 6.23177Z" fill="#41CB83"/>
</svg>
