<svg width="474" height="118" viewBox="0 0 474 118" fill="none" xmlns="http://www.w3.org/2000/svg">
<path fill-rule="evenodd" clip-rule="evenodd" d="M150.454 101.69V23.3085C150.454 22.2445 151.317 21.3815 152.381 21.3815H168.154C169.218 21.3815 170.08 22.2445 170.08 23.3085V101.69C170.08 102.755 169.218 103.618 168.154 103.618H152.381C151.317 103.618 150.454 102.755 150.454 101.69Z" fill="#3D3D3D"/>
<path fill-rule="evenodd" clip-rule="evenodd" d="M175.013 101.69V91.9605C175.013 91.7295 175.055 91.4995 175.136 91.2835L194.542 39.5555C195.015 38.2965 194.084 36.9525 192.739 36.9525H177.926C176.862 36.9525 176 36.0895 176 35.0255V23.3085C176 22.2445 176.862 21.3815 177.926 21.3815H213.932C214.996 21.3815 215.858 22.2445 215.858 23.3085V34.4235C215.858 34.6435 215.82 34.8635 215.746 35.0715L197.426 86.3495C196.977 87.6045 197.907 88.9245 199.24 88.9245H214.094C215.158 88.9245 216.021 89.7865 216.021 90.8505V101.69C216.021 102.755 215.158 103.618 214.094 103.618H176.94C175.876 103.618 175.013 102.755 175.013 101.69Z" fill="#3D3D3D"/>
<path fill-rule="evenodd" clip-rule="evenodd" d="M241.524 54.5496H246.991C248.055 54.5496 248.917 53.6866 248.917 52.6226V43.4746C248.917 40.5146 248.55 38.3876 247.819 37.0886C247.089 35.7906 245.991 35.1416 244.531 35.1416C242.959 35.1416 241.742 35.7646 240.883 37.0056C240.025 38.2486 239.597 40.4056 239.597 43.4746V52.6226C239.597 53.6866 240.46 54.5496 241.524 54.5496ZM243.762 104.493C237.915 104.493 233.255 103.4 229.782 101.204C226.31 99.0126 223.824 95.8516 222.327 91.7216C220.828 87.5916 220.078 82.6196 220.078 76.8066V43.7496C220.078 36.1106 222.271 30.3276 226.658 26.3986C231.042 22.4686 237.073 20.5036 244.748 20.5036C260.539 20.5036 268.432 28.2516 268.432 43.7496V49.7256C268.432 55.4546 268.387 59.6936 268.296 62.4456C268.261 63.4866 267.412 64.3096 266.37 64.3096H241.631C240.567 64.3096 239.704 65.1716 239.704 66.2356V80.2066C239.704 81.6696 239.796 83.1046 239.98 84.5116C240.161 85.9176 240.573 87.0786 241.212 87.9926C241.853 88.9066 242.886 89.3636 244.311 89.3636C246.359 89.3636 247.636 88.4756 248.148 86.7036C248.661 84.9306 248.917 82.6196 248.917 79.7686V73.8006C248.917 72.7366 249.78 71.8736 250.844 71.8736H266.506C267.57 71.8736 268.432 72.7366 268.432 73.8006V76.5336C268.432 82.6756 267.674 87.8176 266.158 91.9676C264.639 96.1166 262.081 99.2386 258.483 101.341C254.882 103.444 249.976 104.493 243.762 104.493Z" fill="#3D3D3D"/>
<path fill-rule="evenodd" clip-rule="evenodd" d="M275.561 101.69V23.3085C275.561 22.2445 276.424 21.3815 277.488 21.3815H293.261C294.325 21.3815 295.187 22.2445 295.187 23.3085V31.8525C295.918 28.7085 297.28 26.0325 299.27 23.8205C301.265 21.6105 304.033 20.5035 307.578 20.5035C313.28 20.5035 317.419 22.2595 319.994 25.7665C322.572 29.2765 323.86 34.0825 323.86 40.1855V101.69C323.86 102.754 322.997 103.617 321.933 103.617H306.433C305.369 103.617 304.507 102.754 304.507 101.69V42.2145C304.507 40.6065 304.178 39.1175 303.52 37.7465C302.862 36.3755 301.731 35.6905 300.12 35.6905C298.621 35.6905 297.517 36.2115 296.806 37.2515C296.093 38.2935 295.644 39.5915 295.46 41.1465C295.277 42.6995 295.187 44.2435 295.187 45.7765V101.69C295.187 102.754 294.325 103.617 293.261 103.617H277.488C276.424 103.617 275.561 102.754 275.561 101.69Z" fill="#3D3D3D"/>
<path fill-rule="evenodd" clip-rule="evenodd" d="M352.323 54.5496H357.79C358.854 54.5496 359.716 53.6866 359.716 52.6226V43.4746C359.716 40.5146 359.349 38.3876 358.618 37.0886C357.888 35.7906 356.79 35.1416 355.33 35.1416C353.758 35.1416 352.541 35.7646 351.682 37.0056C350.824 38.2486 350.396 40.4056 350.396 43.4746V52.6226C350.396 53.6866 351.259 54.5496 352.323 54.5496ZM354.561 104.493C348.714 104.493 344.054 103.4 340.581 101.204C337.109 99.0126 334.623 95.8516 333.126 91.7216C331.627 87.5916 330.877 82.6196 330.877 76.8066V43.7496C330.877 36.1106 333.07 30.3276 337.457 26.3986C341.841 22.4686 347.872 20.5036 355.547 20.5036C371.338 20.5036 379.231 28.2516 379.231 43.7496V49.7256C379.231 55.4546 379.186 59.6936 379.095 62.4456C379.06 63.4866 378.211 64.3096 377.169 64.3096H352.43C351.366 64.3096 350.503 65.1716 350.503 66.2356V80.2066C350.503 81.6696 350.595 83.1046 350.779 84.5116C350.96 85.9176 351.372 87.0786 352.011 87.9926C352.652 88.9066 353.685 89.3636 355.11 89.3636C357.158 89.3636 358.435 88.4756 358.947 86.7036C359.46 84.9306 359.716 82.6196 359.716 79.7686V73.8006C359.716 72.7366 360.579 71.8736 361.643 71.8736H377.305C378.369 71.8736 379.231 72.7366 379.231 73.8006V76.5336C379.231 82.6756 378.473 87.8176 376.957 91.9676C375.438 96.1166 372.88 99.2386 369.281 101.341C365.681 103.444 360.775 104.493 354.561 104.493Z" fill="#3D3D3D"/>
<path fill-rule="evenodd" clip-rule="evenodd" d="M386.36 101.69V23.3085C386.36 22.2445 387.223 21.3815 388.287 21.3815H404.388C405.452 21.3815 406.315 22.2445 406.315 23.3085C406.315 25.0455 408.427 25.8905 409.619 24.6265C410.149 24.0635 410.729 23.5475 411.359 23.0795C413.282 21.6535 415.598 20.7955 418.309 20.5055C419.452 20.3835 420.461 21.2835 420.461 22.4335V34.9335C420.461 35.9455 419.694 36.7815 418.685 36.8485C417.491 36.9265 416.164 37.0805 414.704 37.3065C412.474 37.6575 410.518 38.1315 408.837 38.7335C407.156 39.3355 406.315 40.0015 406.315 40.7345V101.69C406.315 102.755 405.452 103.618 404.388 103.618H388.287C387.223 103.618 386.36 102.755 386.36 101.69Z" fill="#3D3D3D"/>
<mask id="mask0_0_1835" style="mask-type:luminance" maskUnits="userSpaceOnUse" x="423" y="0" width="24" height="118">
<path fill-rule="evenodd" clip-rule="evenodd" d="M423.201 0H446.994V117.87H423.201V0Z" fill="white"/>
</mask>
<g mask="url(#mask0_0_1835)">
<path fill-rule="evenodd" clip-rule="evenodd" d="M427.368 14.4108V1.9268C427.368 0.8628 428.231 -0.0002 429.295 -0.0002H445.068C446.132 -0.0002 446.994 0.8628 446.994 1.9268V14.4108C446.994 15.4748 446.132 16.3378 445.068 16.3378H429.295C428.231 16.3378 427.368 15.4748 427.368 14.4108ZM431.535 117.87C428.339 117.87 425.96 117.591 424.398 117.033C423.659 116.768 423.201 116.029 423.201 115.244V103.288C423.859 103.472 424.464 103.562 425.01 103.562C426.07 103.562 426.727 103.199 426.984 102.466C427.24 101.734 427.368 100.803 427.368 99.6708V23.3078C427.368 22.2438 428.231 21.3818 429.295 21.3818H445.068C446.132 21.3818 446.994 22.2438 446.994 23.3078V99.1218C446.994 104.969 445.832 109.556 443.513 112.881C441.192 116.209 437.2 117.87 431.535 117.87Z" fill="#3D3D3D"/>
</g>
<path fill-rule="evenodd" clip-rule="evenodd" d="M454.231 101.691V23.3085C454.231 22.2445 455.094 21.3815 456.158 21.3815H471.933C472.997 21.3815 473.859 22.2445 473.859 23.3085V101.691C473.859 102.754 472.997 103.618 471.933 103.618H456.158C455.094 103.618 454.231 102.754 454.231 101.691ZM454.231 14.4105V1.9265C454.231 0.8625 455.094 0.0005 456.158 0.0005H471.933C472.997 0.0005 473.859 0.8625 473.859 1.9265V14.4105C473.859 15.4745 472.997 16.3375 471.933 16.3375H456.158C455.094 16.3375 454.231 15.4745 454.231 14.4105Z" fill="#3D3D3D"/>
<mask id="mask1_0_1835" style="mask-type:luminance" maskUnits="userSpaceOnUse" x="150" y="0" width="21" height="17">
<path fill-rule="evenodd" clip-rule="evenodd" d="M150.454 0H170.08V16.3378H150.454V0Z" fill="white"/>
</mask>
<g mask="url(#mask1_0_1835)">
<path fill-rule="evenodd" clip-rule="evenodd" d="M150.454 14.4108V1.9268C150.454 0.8628 151.317 -0.0002 152.381 -0.0002H168.154C169.218 -0.0002 170.08 0.8628 170.08 1.9268V14.4108C170.08 15.4748 169.218 16.3378 168.154 16.3378H152.381C151.317 16.3378 150.454 15.4748 150.454 14.4108Z" fill="#3D3D3D"/>
</g>
<path fill-rule="evenodd" clip-rule="evenodd" d="M67.847 111.7C68.079 112.246 67.675 112.847 67.083 112.847H61.674H61.616H56.207C55.614 112.847 55.211 112.246 55.443 111.7C56.537 109.123 59.06 100.099 59.702 91.0837C60.77 89.2437 61.214 87.9137 61.308 87.6127H61.685C62.237 89.1437 62.899 90.5607 63.648 91.8827C64.376 100.626 66.785 109.199 67.847 111.7ZM122.384 106.459C105.771 56.5087 78.108 62.0277 76.34 62.4357L76.159 62.2597C96.541 37.9637 61.698 0.2637 61.698 0.2637C27.395 39.5827 45.562 60.5937 47.099 62.2397C16.043 56.3337 0 104.965 0 104.965C32.328 111.898 48.014 103.968 55.345 96.6817C54.417 102.758 52.91 108.165 52.025 110.249C51.429 111.654 51.576 113.252 52.418 114.524C53.261 115.799 54.678 116.56 56.207 116.56H61.616H61.674H67.083C68.612 116.56 70.028 115.799 70.872 114.524C71.714 113.252 71.861 111.654 71.264 110.249C70.429 108.282 69.039 103.352 68.105 97.6937C85.205 114.524 122.384 106.459 122.384 106.459Z" fill="#41CB83"/>
<path fill-rule="evenodd" clip-rule="evenodd" d="M90.2163 86.5032C80.3293 72.6642 67.6743 69.6652 66.1873 69.3542C66.0783 69.3322 65.9763 69.2842 65.8903 69.2132C65.5493 68.9272 64.7883 68.0842 65.2413 66.5142C70.1313 49.5762 61.6243 36.3232 61.6243 36.3232H61.6073C61.6073 36.3232 53.1003 49.5762 57.9893 66.5142C58.4433 68.0842 57.6823 68.9272 57.3413 69.2132C57.2553 69.2842 57.1533 69.3322 57.0433 69.3542C55.5573 69.6652 42.9023 72.6642 33.0153 86.5032C32.6823 86.9692 33.0273 87.6182 33.6003 87.6042C37.7133 87.5072 50.2793 86.4452 57.9163 77.4122C57.9163 77.4122 58.1303 77.0562 58.4973 77.2902C62.2723 88.2202 57.1383 107.705 55.4423 111.699C55.2113 112.245 55.6143 112.847 56.2073 112.847H61.6163H61.6743H67.0823C67.6753 112.847 68.0783 112.245 67.8473 111.699C66.1583 107.72 61.0583 88.3722 64.7503 77.4192C64.9423 77.2542 65.1323 77.2302 65.3153 77.4122C73.6803 85.7762 85.5183 87.5072 89.6313 87.6042C90.2043 87.6182 90.5493 86.9692 90.2163 86.5032Z" fill="white"/>
<path fill-rule="evenodd" clip-rule="evenodd" d="M64.1623 72.5563C64.1623 73.9783 63.0093 75.1313 61.5873 75.1313C60.1653 75.1313 59.0123 73.9783 59.0123 72.5563C59.0123 71.1343 60.1653 69.9813 61.5873 69.9813C63.0093 69.9813 64.1623 71.1343 64.1623 72.5563Z" fill="#41CB83"/>
</svg>
