<svg width="24" height="24" viewBox="0 0 24 24" fill="none" xmlns="http://www.w3.org/2000/svg">
<mask id="mask0_0_1822" style="mask-type:luminance" maskUnits="userSpaceOnUse" x="9" y="8" width="13" height="13">
<path fill-rule="evenodd" clip-rule="evenodd" d="M9.26305 8.34918H21.136V20.1371H9.26305V8.34918Z" fill="white"/>
</mask>
<g mask="url(#mask0_0_1822)">
<path fill-rule="evenodd" clip-rule="evenodd" d="M13.1549 10.1961C13.2299 10.1167 13.2591 10.0925 13.2801 10.0624C14.3025 8.5934 15.7629 8.16148 17.4669 8.41937C19.4359 8.71771 20.696 10.0749 21.0177 12.1515C21.0941 12.644 21.132 13.1384 21.1315 13.6361C21.1304 15.7037 21.1271 17.7712 21.1361 19.8387C21.1374 20.0716 21.0792 20.14 20.8368 20.137C19.7368 20.124 18.6363 20.1241 17.5361 20.137C17.2953 20.1397 17.2337 20.072 17.2349 19.8389C17.2439 17.9105 17.2408 15.9823 17.2388 14.0541C17.2381 13.6159 17.2075 13.1804 17.0824 12.7561C16.6814 11.3948 15.1085 10.917 13.9885 11.8222C13.3834 12.311 13.1468 12.9574 13.1514 13.7183C13.1612 15.5372 13.1542 17.3561 13.1542 19.1751C13.1542 19.4138 13.1407 19.6531 13.1583 19.8903C13.1738 20.0965 13.0882 20.1363 12.8985 20.135C11.7779 20.1276 10.6575 20.1268 9.53716 20.1355C9.33379 20.137 9.26077 20.0964 9.2631 19.8762C9.2795 18.2367 9.28618 16.5964 9.28682 14.9567C9.28714 12.9388 9.28312 10.9212 9.26881 8.90355C9.26728 8.68264 9.31424 8.61732 9.546 8.61985C10.6666 8.6322 11.787 8.63038 12.9075 8.62112C13.1092 8.61922 13.1655 8.67908 13.1591 8.87227C13.1452 9.28804 13.1549 9.70452 13.1549 10.1961Z" fill="#41CB83"/>
</g>
<mask id="mask1_0_1822" style="mask-type:luminance" maskUnits="userSpaceOnUse" x="3" y="8" width="5" height="13">
<path fill-rule="evenodd" clip-rule="evenodd" d="M3.23535 8.62018H7.13689V20.1377H3.23535V8.62018Z" fill="white"/>
</mask>
<g mask="url(#mask1_0_1822)">
<path fill-rule="evenodd" clip-rule="evenodd" d="M7.13213 14.3798C7.13213 16.198 7.12819 18.0163 7.13687 19.8347C7.13776 20.0604 7.0916 20.1408 6.84159 20.1376C5.73177 20.123 4.62164 20.1264 3.51174 20.1355C3.30564 20.1373 3.23616 20.0865 3.2364 19.8733C3.24179 16.2068 3.24082 12.5405 3.23535 8.874C3.23511 8.68302 3.2824 8.6192 3.48593 8.62102C4.61625 8.63053 5.74657 8.63171 6.87657 8.62023C7.10213 8.61778 7.13728 8.69894 7.13639 8.89506C7.12948 10.7235 7.13245 12.5515 7.13213 14.3798Z" fill="#41CB83"/>
</g>
<path fill-rule="evenodd" clip-rule="evenodd" d="M5.21613 3.07916C6.70518 3.08075 7.67258 4.24199 7.31964 5.6041C7.05298 6.63256 5.97268 7.22458 4.72575 7.02528C3.40139 6.81364 2.6631 5.54099 3.15114 4.31111C3.45575 3.54299 4.2353 3.07798 5.21613 3.07916Z" fill="#41CB83"/>
</svg>
