<svg width="29" height="20" viewBox="0 0 29 20" fill="none" xmlns="http://www.w3.org/2000/svg">
<path fill-rule="evenodd" clip-rule="evenodd" d="M1.42857 2.85714H27.1429C27.9319 2.85714 28.5714 2.21754 28.5714 1.42857C28.5714 0.6396 27.9319 0 27.1429 0H1.42857C0.6396 0 0 0.6396 0 1.42857C0 2.21754 0.6396 2.85714 1.42857 2.85714ZM1.42857 11.4286H27.1429C27.9319 11.4286 28.5714 10.789 28.5714 10C28.5714 9.211 27.9319 8.57143 27.1429 8.57143H1.42857C0.6396 8.57143 0 9.211 0 10C0 10.789 0.6396 11.4286 1.42857 11.4286ZM27.1429 20H1.42857C0.6396 20 0 19.3604 0 18.5714C0 17.7824 0.6396 17.1429 1.42857 17.1429H27.1429C27.9319 17.1429 28.5714 17.7824 28.5714 18.5714C28.5714 19.3604 27.9319 20 27.1429 20Z" fill="black"/>
<mask id="mask0_0_1412" style="mask-type:luminance" maskUnits="userSpaceOnUse" x="0" y="0" width="29" height="20">
<path fill-rule="evenodd" clip-rule="evenodd" d="M1.42857 2.85714H27.1429C27.9319 2.85714 28.5714 2.21754 28.5714 1.42857C28.5714 0.6396 27.9319 0 27.1429 0H1.42857C0.6396 0 0 0.6396 0 1.42857C0 2.21754 0.6396 2.85714 1.42857 2.85714ZM1.42857 11.4286H27.1429C27.9319 11.4286 28.5714 10.789 28.5714 10C28.5714 9.211 27.9319 8.57143 27.1429 8.57143H1.42857C0.6396 8.57143 0 9.211 0 10C0 10.789 0.6396 11.4286 1.42857 11.4286ZM27.1429 20H1.42857C0.6396 20 0 19.3604 0 18.5714C0 17.7824 0.6396 17.1429 1.42857 17.1429H27.1429C27.9319 17.1429 28.5714 17.7824 28.5714 18.5714C28.5714 19.3604 27.9319 20 27.1429 20Z" fill="white"/>
</mask>
<g mask="url(#mask0_0_1412)">
<rect x="-2.85712" y="-7.14288" width="34.2857" height="34.2857" fill="#9DA8C3"/>
</g>
</svg>
