<svg width="24" height="24" viewBox="0 0 24 24" fill="none" xmlns="http://www.w3.org/2000/svg">
<path fill-rule="evenodd" clip-rule="evenodd" d="M19.9438 7.43818C19.4675 7.64793 18.9432 7.77479 18.4287 7.8586C18.673 7.81921 19.0328 7.38964 19.1766 7.21607C19.3958 6.95136 19.5788 6.64956 19.6816 6.32395C19.6943 6.2983 19.7042 6.26625 19.6783 6.24701C19.6448 6.23465 19.6241 6.24106 19.5977 6.25388C19.0238 6.55247 18.4296 6.76909 17.7978 6.92251C17.7454 6.93534 17.7068 6.92251 17.6738 6.89046C17.6214 6.83321 17.5724 6.77917 17.5167 6.73429C17.2508 6.51492 16.966 6.34273 16.6444 6.21541C16.2228 6.04825 15.7617 5.97773 15.3076 6.00612C14.8657 6.03451 14.4314 6.15542 14.0391 6.35417C13.6458 6.55385 13.295 6.83138 13.0154 7.16615C12.7263 7.51283 12.5132 7.9218 12.4043 8.35504C12.2986 8.77362 12.3076 9.18762 12.3717 9.61033C12.3811 9.68039 12.375 9.69001 12.3095 9.68039C9.83764 9.32318 7.78831 8.46403 6.12517 6.623C6.05255 6.54332 6.01341 6.54332 5.954 6.62941C5.22641 7.68915 5.57959 9.39142 6.48873 10.2281C6.60992 10.3394 6.73441 10.4512 6.86927 10.5528C6.81976 10.5629 6.21476 10.4992 5.67532 10.2281C5.60317 10.1842 5.56686 10.2093 5.56073 10.289C5.55413 10.4035 5.56403 10.5089 5.58007 10.633C5.71964 11.7069 6.4859 12.7007 7.53509 13.0881C7.6591 13.1394 7.79679 13.1838 7.93166 13.2063C7.69258 13.2571 7.44597 13.2933 6.76081 13.2411C6.67546 13.2255 6.64293 13.2667 6.67546 13.3464C7.19039 14.7098 8.30229 15.1156 9.13457 15.3464C9.24679 15.3656 9.35808 15.3656 9.46936 15.3908C9.46323 15.4009 9.45616 15.4009 9.44956 15.41C9.1737 15.819 8.216 16.1231 7.77039 16.2747C6.95933 16.5499 6.0766 16.6736 5.21981 16.5916C5.08259 16.5719 5.05335 16.5737 5.01657 16.5916C4.97885 16.6145 5.01138 16.6461 5.05571 16.6809C5.22971 16.7922 5.40654 16.8911 5.58714 16.9868C6.1313 17.2666 6.69857 17.4897 7.29177 17.649C10.3563 18.4711 13.808 17.867 16.1087 15.6468C17.9157 13.9033 18.5489 11.499 18.5489 9.09145C18.5489 8.99711 18.6635 8.9449 18.7319 8.89544C19.202 8.55242 19.5755 8.14162 19.9263 7.6832C20.0051 7.58061 19.9999 7.48856 19.9999 7.45101C19.9999 7.4446 19.9999 7.43818 19.9999 7.43818C19.9999 7.39972 20.0051 7.41162 19.9438 7.43818Z" fill="#41CB83"/>
</svg>
